<svg width="97" height="84" viewBox="0 0 97 84" fill="none" xmlns="http://www.w3.org/2000/svg">
<path d="M29.5 16.5C34.375 16.5 38.5 20.625 38.5 25.5C38.5 30.5625 34.375 34.5 29.5 34.5C24.4375 34.5 20.5 30.5625 20.5 25.5C20.5 20.625 24.4375 16.5 29.5 16.5ZM84.8125 0C91.5625 0 96.8125 5.4375 96.8125 12V72C96.8125 78.75 91.375 84 84.8125 84H12.8125C6.25 84 0.8125 78.75 0.8125 72V12C0.8125 5.4375 6.25 0 12.8125 0H84.8125ZM87.8125 70.875V12C87.8125 10.5 86.5 9 84.8125 9H12.8125C11.3125 9 9.8125 10.5 9.8125 12L10 72L24.0625 54.375C24.8125 53.625 25.75 53.0625 26.875 53.0625C28 53.0625 28.9375 53.625 29.6875 54.375L36.625 63L56.5 36C57.25 35.0625 58.1875 34.5 59.5 34.5C60.625 34.5 61.5625 35.0625 62.125 36L87.8125 70.875Z" fill="#3E3232" fill-opacity="0.25"/>
</svg>
