<svg width="406" height="229" viewBox="0 0 406 229" fill="none" xmlns="http://www.w3.org/2000/svg">
<g filter="url(#filter0_d_212_2486)">
<path d="M143.656 134.344V152.344H45.2188L44.4688 138.75L103.344 46.5H121.438L101.844 80.0625L68 134.344H143.656ZM126.594 46.5V183H104V46.5H126.594ZM247.719 103.312V125.625C247.719 136.312 246.656 145.438 244.531 153C242.469 160.5 239.469 166.594 235.531 171.281C231.594 175.969 226.875 179.406 221.375 181.594C215.938 183.781 209.844 184.875 203.094 184.875C197.719 184.875 192.719 184.188 188.094 182.812C183.531 181.438 179.406 179.281 175.719 176.344C172.031 173.406 168.875 169.625 166.25 165C163.688 160.312 161.688 154.719 160.25 148.219C158.875 141.719 158.188 134.188 158.188 125.625V103.312C158.188 92.5625 159.25 83.5 161.375 76.125C163.5 68.6875 166.531 62.6562 170.469 58.0312C174.406 53.3438 179.094 49.9375 184.531 47.8125C190.031 45.6875 196.156 44.625 202.906 44.625C208.344 44.625 213.344 45.3125 217.906 46.6875C222.531 48 226.656 50.0937 230.281 52.9688C233.969 55.8438 237.094 59.5938 239.656 64.2188C242.281 68.7812 244.281 74.3125 245.656 80.8125C247.031 87.25 247.719 94.75 247.719 103.312ZM225.125 128.812V99.9375C225.125 94.5 224.812 89.7188 224.188 85.5938C223.562 81.4062 222.625 77.875 221.375 75C220.188 72.0625 218.688 69.6875 216.875 67.875C215.062 66 213 64.6562 210.688 63.8438C208.375 62.9688 205.781 62.5312 202.906 62.5312C199.406 62.5312 196.281 63.2187 193.531 64.5938C190.781 65.9062 188.469 68.0312 186.594 70.9688C184.719 73.9062 183.281 77.7812 182.281 82.5938C181.344 87.3438 180.875 93.125 180.875 99.9375V128.812C180.875 134.312 181.188 139.156 181.812 143.344C182.438 147.531 183.375 151.125 184.625 154.125C185.875 157.062 187.375 159.5 189.125 161.438C190.938 163.312 193 164.688 195.312 165.562C197.688 166.438 200.281 166.875 203.094 166.875C206.656 166.875 209.812 166.188 212.562 164.812C215.312 163.438 217.625 161.25 219.5 158.25C221.375 155.188 222.781 151.219 223.719 146.344C224.656 141.469 225.125 135.625 225.125 128.812ZM361.906 134.344V152.344H263.469L262.719 138.75L321.594 46.5H339.688L320.094 80.0625L286.25 134.344H361.906ZM344.844 46.5V183H322.25V46.5H344.844Z" fill="#FC4308"/>
</g>
<defs>
<filter id="filter0_d_212_2486" x="0.46875" y="0.625" width="405.438" height="228.25" filterUnits="userSpaceOnUse" color-interpolation-filters="sRGB">
<feFlood flood-opacity="0" result="BackgroundImageFix"/>
<feColorMatrix in="SourceAlpha" type="matrix" values="0 0 0 0 0 0 0 0 0 0 0 0 0 0 0 0 0 0 127 0" result="hardAlpha"/>
<feOffset/>
<feGaussianBlur stdDeviation="22"/>
<feComposite in2="hardAlpha" operator="out"/>
<feColorMatrix type="matrix" values="0 0 0 0 0.988235 0 0 0 0 0.262745 0 0 0 0 0.0313725 0 0 0 0.35 0"/>
<feBlend mode="normal" in2="BackgroundImageFix" result="effect1_dropShadow_212_2486"/>
<feBlend mode="normal" in="SourceGraphic" in2="effect1_dropShadow_212_2486" result="shape"/>
</filter>
</defs>
</svg>
